<svg width="1000" height="1000" xmlns="http://www.w3.org/2000/svg" version="1.1">


<!-- internal style sheet -->
<style type="text/css"><![CDATA[
 rect.background{fill:white}
 rect{fill:none; stroke:rgb(25,25,25); stroke-width:2}
 text{font-family:Helvetica; text-anchor:middle; fill:rgb(25,25,25)}
 line{stroke:rgb(25,25,25); stroke-width:4}
 path{fill:none; stroke:rgb(25,25,25); stroke-width:2}
 circle{fill:white; stroke:black; stroke-width:2}

 path.p0{fill:rgb(0,102,255); stroke:rgb(25,25,25); stroke-width:2}
 path.ps0{fill:rgb(0,77,191); stroke:rgb(20,20,20); stroke-width:2}
 rect.r0{fill:rgb(0,102,255); stroke:rgb(25,25,25); stroke-width:2}
 path.p1{fill:rgb(51,255,0); stroke:rgb(25,25,25); stroke-width:2}
 path.ps1{fill:rgb(38,191,0); stroke:rgb(20,20,20); stroke-width:2}
 rect.r1{fill:rgb(51,255,0); stroke:rgb(25,25,25); stroke-width:2}
 path.p2{fill:rgb(255,0,0); stroke:rgb(25,25,25); stroke-width:2}
 path.ps2{fill:rgb(191,0,0); stroke:rgb(20,20,20); stroke-width:2}
 rect.r2{fill:rgb(255,0,0); stroke:rgb(25,25,25); stroke-width:2}
]]></style>

 <rect class="background" width="1000" height="1000"/>
  <!-- cells -->
  <path class="p2" d="M 80 920 L 290 920 L 290 710 L 80 710 L 80 920"/>
  <line x1="80" y1="920" x2="80" y2="710"/>
  <line x1="80" y1="920" x2="290" y2="920"/>
  <path class="p2" d="M 290 920 L 500 920 L 500 710 L 290 710 L 290 920"/>
  <line x1="290" y1="920" x2="500" y2="920"/>
  <path class="p2" d="M 80 710 L 290 710 L 290 500 L 80 500 L 80 710"/>
  <line x1="80" y1="710" x2="80" y2="500"/>
  <path class="p2" d="M 290 710 L 500 710 L 500 500 L 290 500 L 290 710"/>
  <path class="p2" d="M 500 920 L 710 920 L 710 710 L 500 710 L 500 920"/>
  <line x1="500" y1="920" x2="710" y2="920"/>
  <path class="p2" d="M 710 920 L 920 920 L 920 710 L 710 710 L 710 920"/>
  <line x1="920" y1="920" x2="920" y2="710"/>
  <line x1="710" y1="920" x2="920" y2="920"/>
  <path class="p2" d="M 500 710 L 710 710 L 710 500 L 500 500 L 500 710"/>
  <path class="p2" d="M 710 710 L 920 710 L 920 500 L 710 500 L 710 710"/>
  <line x1="920" y1="710" x2="920" y2="500"/>
  <path class="p2" d="M 80 500 L 290 500 L 290 290 L 80 290 L 80 500"/>
  <line x1="80" y1="500" x2="80" y2="290"/>
  <path class="p2" d="M 290 500 L 500 500 L 500 290 L 290 290 L 290 500"/>
  <path class="p2" d="M 80 290 L 290 290 L 290 80 L 80 80 L 80 290"/>
  <line x1="80" y1="290" x2="80" y2="80"/>
  <line x1="80" y1="80" x2="290" y2="80"/>
  <path class="p2" d="M 290 290 L 500 290 L 500 80 L 290 80 L 290 290"/>
  <line x1="290" y1="80" x2="500" y2="80"/>
  <path class="p2" d="M 500 500 L 710 500 L 710 290 L 500 290 L 500 500"/>
  <path class="p2" d="M 710 500 L 920 500 L 920 290 L 710 290 L 710 500"/>
  <line x1="920" y1="500" x2="920" y2="290"/>
  <path class="p2" d="M 500 290 L 710 290 L 710 80 L 500 80 L 500 290"/>
  <line x1="500" y1="80" x2="710" y2="80"/>
  <path class="p2" d="M 710 290 L 920 290 L 920 80 L 710 80 L 710 290"/>
  <line x1="920" y1="290" x2="920" y2="80"/>
  <line x1="710" y1="80" x2="920" y2="80"/>

</svg>