<svg width="1000" height="1000" xmlns="http://www.w3.org/2000/svg" version="1.1">


<!-- internal style sheet -->
<style type="text/css"><![CDATA[
 rect.background{fill:white}
 rect{fill:none; stroke:rgb(25,25,25); stroke-width:2}
 text{font-family:Helvetica; text-anchor:middle; fill:rgb(25,25,25)}
 line{stroke:rgb(25,25,25); stroke-width:4}
 path{fill:none; stroke:rgb(25,25,25); stroke-width:2}
 circle{fill:white; stroke:black; stroke-width:2}

 path.p0{fill:rgb(0,102,255); stroke:rgb(25,25,25); stroke-width:2}
 path.ps0{fill:rgb(0,77,191); stroke:rgb(20,20,20); stroke-width:2}
 rect.r0{fill:rgb(0,102,255); stroke:rgb(25,25,25); stroke-width:2}
 path.p1{fill:rgb(255,0,0); stroke:rgb(25,25,25); stroke-width:2}
 path.ps1{fill:rgb(191,0,0); stroke:rgb(20,20,20); stroke-width:2}
 rect.r1{fill:rgb(255,0,0); stroke:rgb(25,25,25); stroke-width:2}
]]></style>

 <rect class="background" width="1000" height="1000"/>
  <!-- cells -->
  <path class="p1" d="M 80 920 L 220 920 L 220 780 L 80 780 L 80 920"/>
  <line x1="80" y1="920" x2="80" y2="780"/>
  <line x1="80" y1="920" x2="220" y2="920"/>
  <path class="p1" d="M 220 920 L 360 920 L 360 780 L 220 780 L 220 920"/>
  <line x1="220" y1="920" x2="360" y2="920"/>
  <path class="p1" d="M 80 780 L 220 780 L 220 640 L 80 640 L 80 780"/>
  <line x1="80" y1="780" x2="80" y2="640"/>
  <path class="p1" d="M 220 780 L 360 780 L 360 640 L 220 640 L 220 780"/>
  <path class="p1" d="M 360 920 L 500 920 L 500 780 L 360 780 L 360 920"/>
  <line x1="360" y1="920" x2="500" y2="920"/>
  <path class="p1" d="M 500 920 L 640 920 L 640 780 L 500 780 L 500 920"/>
  <line x1="500" y1="920" x2="640" y2="920"/>
  <path class="p1" d="M 360 780 L 500 780 L 500 640 L 360 640 L 360 780"/>
  <path class="p1" d="M 500 780 L 640 780 L 640 640 L 500 640 L 500 780"/>
  <path class="p1" d="M 80 640 L 220 640 L 220 500 L 80 500 L 80 640"/>
  <line x1="80" y1="640" x2="80" y2="500"/>
  <path class="p1" d="M 220 640 L 360 640 L 360 500 L 220 500 L 220 640"/>
  <path class="p1" d="M 80 500 L 220 500 L 220 360 L 80 360 L 80 500"/>
  <line x1="80" y1="500" x2="80" y2="360"/>
  <path class="p1" d="M 220 500 L 360 500 L 360 360 L 220 360 L 220 500"/>
  <path class="p1" d="M 360 640 L 500 640 L 500 500 L 360 500 L 360 640"/>
  <path class="p1" d="M 500 640 L 640 640 L 640 500 L 500 500 L 500 640"/>
  <path class="p1" d="M 360 500 L 500 500 L 500 360 L 360 360 L 360 500"/>
  <path class="p1" d="M 500 500 L 640 500 L 640 360 L 500 360 L 500 500"/>
  <path class="p1" d="M 640 920 L 780 920 L 780 780 L 640 780 L 640 920"/>
  <line x1="640" y1="920" x2="780" y2="920"/>
  <path class="p1" d="M 780 920 L 920 920 L 920 780 L 780 780 L 780 920"/>
  <line x1="920" y1="920" x2="920" y2="780"/>
  <line x1="780" y1="920" x2="920" y2="920"/>
  <path class="p1" d="M 640 780 L 780 780 L 780 640 L 640 640 L 640 780"/>
  <path class="p1" d="M 780 780 L 920 780 L 920 640 L 780 640 L 780 780"/>
  <line x1="920" y1="780" x2="920" y2="640"/>
  <path class="p1" d="M 640 640 L 780 640 L 780 500 L 640 500 L 640 640"/>
  <path class="p1" d="M 780 640 L 920 640 L 920 500 L 780 500 L 780 640"/>
  <line x1="920" y1="640" x2="920" y2="500"/>
  <path class="p1" d="M 640 500 L 780 500 L 780 360 L 640 360 L 640 500"/>
  <path class="p1" d="M 780 500 L 920 500 L 920 360 L 780 360 L 780 500"/>
  <line x1="920" y1="500" x2="920" y2="360"/>
  <path class="p1" d="M 80 360 L 220 360 L 220 220 L 80 220 L 80 360"/>
  <line x1="80" y1="360" x2="80" y2="220"/>
  <path class="p1" d="M 220 360 L 360 360 L 360 220 L 220 220 L 220 360"/>
  <path class="p1" d="M 80 220 L 220 220 L 220 80 L 80 80 L 80 220"/>
  <line x1="80" y1="220" x2="80" y2="80"/>
  <line x1="80" y1="80" x2="220" y2="80"/>
  <path class="p1" d="M 220 220 L 360 220 L 360 80 L 220 80 L 220 220"/>
  <line x1="220" y1="80" x2="360" y2="80"/>
  <path class="p1" d="M 360 360 L 500 360 L 500 220 L 360 220 L 360 360"/>
  <path class="p1" d="M 500 360 L 640 360 L 640 220 L 500 220 L 500 360"/>
  <path class="p1" d="M 360 220 L 500 220 L 500 80 L 360 80 L 360 220"/>
  <line x1="360" y1="80" x2="500" y2="80"/>
  <path class="p1" d="M 500 220 L 640 220 L 640 80 L 500 80 L 500 220"/>
  <line x1="500" y1="80" x2="640" y2="80"/>
  <path class="p1" d="M 640 360 L 780 360 L 780 220 L 640 220 L 640 360"/>
  <path class="p1" d="M 780 360 L 920 360 L 920 220 L 780 220 L 780 360"/>
  <line x1="920" y1="360" x2="920" y2="220"/>
  <path class="p1" d="M 640 220 L 780 220 L 780 80 L 640 80 L 640 220"/>
  <line x1="640" y1="80" x2="780" y2="80"/>
  <path class="p1" d="M 780 220 L 920 220 L 920 80 L 780 80 L 780 220"/>
  <line x1="920" y1="220" x2="920" y2="80"/>
  <line x1="780" y1="80" x2="920" y2="80"/>

</svg>